<?xml version="1.0" standalone="no"?>
<!DOCTYPE svg PUBLIC "-//W3C//DTD SVG 20010904//EN"
 "http://www.w3.org/TR/2001/REC-SVG-20010904/DTD/svg10.dtd">
<svg version="1.0" xmlns="http://www.w3.org/2000/svg"
 width="380.000000pt" height="375.000000pt" viewBox="0 0 380.000000 375.000000"
 preserveAspectRatio="xMidYMid meet">
<metadata>
Created by potrace 1.14, written by Peter Selinger 2001-2017
</metadata>
<g transform="translate(0.000000,375.000000) scale(0.100000,-0.100000)"
fill="#2424DB" stroke="none">
<path d="M1540 3721 c-185 -39 -299 -78 -475 -166 -201 -101 -311 -181 -480
-350 -169 -169 -250 -280 -350 -480 -87 -174 -131 -304 -171 -500 -26 -127
-29 -159 -28 -340 0 -179 3 -214 28 -340 34 -170 78 -307 140 -439 189 -404
492 -713 891 -906 530 -257 1159 -247 1675 27 487 259 840 713 954 1226 46
209 50 238 49 437 0 177 -3 209 -31 347 -35 173 -75 297 -138 432 -187 399
-485 702 -879 896 -157 78 -298 125 -474 159 -118 23 -154 26 -354 25 -203 0
-234 -3 -357 -28z m618 -156 c542 -82 1017 -426 1262 -915 121 -239 180 -489
180 -760 0 -599 -301 -1140 -808 -1452 -263 -162 -571 -248 -887 -248 -707 0
-1331 429 -1586 1089 -40 104 -78 248 -95 356 -18 116 -18 384 0 501 37 244
127 475 262 679 99 149 165 228 278 328 252 225 556 370 881 422 114 18 394
18 513 0z"/>
<path d="M1786 2571 c-18 -7 -18 -8 -2 -14 16 -6 18 -18 14 -97 -3 -88 -3 -90
22 -98 76 -26 139 53 94 117 -13 18 -24 22 -50 19 -32 -4 -33 -3 -36 36 -3 42
-11 49 -42 37z m104 -112 c13 -23 5 -70 -13 -81 -31 -20 -47 -9 -47 31 0 22 3
46 6 55 9 23 41 20 54 -5z"/>
<path d="M2061 2571 c-9 -6 -10 -11 -2 -15 15 -10 15 -168 -1 -184 -9 -9 -3
-12 28 -11 21 0 33 3 27 6 -9 3 -13 35 -13 109 0 106 -4 117 -39 95z"/>
<path d="M1080 2555 c0 -8 7 -15 15 -15 8 0 15 7 15 15 0 8 -7 15 -15 15 -8 0
-15 -7 -15 -15z"/>
<path d="M1970 2555 c0 -10 7 -15 18 -13 21 4 19 22 -2 26 -10 2 -16 -3 -16
-13z"/>
<path d="M2160 2555 c0 -8 7 -15 15 -15 8 0 15 7 15 15 0 8 -7 15 -15 15 -8 0
-15 -7 -15 -15z"/>
<path d="M2540 2555 c0 -8 7 -15 15 -15 8 0 15 7 15 15 0 8 -7 15 -15 15 -8 0
-15 -7 -15 -15z"/>
<path d="M1075 2490 c-11 -5 -14 -9 -7 -9 8 -1 12 -19 12 -55 0 -34 -5 -56
-12 -59 -7 -3 5 -6 27 -6 30 -1 36 2 27 11 -7 7 -12 38 -12 70 0 60 -2 62 -35
48z"/>
<path d="M1169 2490 c-8 -6 -8 -9 0 -14 15 -10 14 -89 -1 -104 -9 -9 -3 -12
28 -12 24 0 34 3 26 9 -9 5 -12 25 -10 57 3 45 5 49 28 49 22 0 25 -5 28 -43
2 -24 -2 -50 -9 -58 -10 -12 -5 -14 27 -13 22 0 33 3 27 6 -8 3 -13 25 -13 58
0 30 -5 57 -12 63 -14 12 -101 13 -119 2z"/>
<path d="M1353 2493 c-10 -3 -9 -9 3 -21 19 -18 14 -90 -8 -103 -8 -6 4 -9 32
-9 35 1 41 3 28 11 -20 11 -24 59 -8 90 13 23 46 25 54 3 12 -32 6 -83 -11
-93 -14 -8 -9 -10 25 -11 40 0 42 1 28 16 -18 18 -20 42 -6 78 11 29 44 35 54
10 10 -26 7 -79 -6 -92 -9 -9 -3 -12 28 -12 21 0 34 4 28 8 -6 4 -14 31 -17
60 -3 29 -9 57 -12 62 -8 13 -41 13 -65 0 -13 -7 -21 -7 -25 0 -9 14 -58 13
-73 -2 -9 -9 -12 -9 -12 0 0 12 -15 14 -37 5z"/>
<path d="M1642 2477 c-29 -31 -28 -72 3 -103 29 -28 68 -25 98 8 59 68 -39
161 -101 95z m72 -9 c20 -28 20 -58 2 -84 -31 -40 -81 30 -58 81 14 31 36 32
56 3z"/>
<path d="M1966 2491 c-18 -7 -18 -8 -3 -14 22 -8 23 -79 1 -101 -14 -15 -12
-16 21 -16 32 0 35 2 25 19 -5 11 -10 42 -10 70 0 53 -2 55 -34 42z"/>
<path d="M2150 2490 c-10 -6 -11 -10 -2 -10 8 0 12 -18 12 -54 0 -34 -5 -56
-12 -59 -7 -3 5 -6 27 -6 30 -1 36 2 27 11 -7 7 -12 38 -12 70 0 59 -8 69 -40
48z"/>
<path d="M2257 2493 c-4 -3 -7 -16 -6 -27 0 -21 0 -21 16 2 19 28 40 28 48 1
4 -11 5 -21 3 -23 -1 -1 -20 -9 -41 -19 -30 -14 -38 -22 -35 -40 3 -19 9 -22
59 -24 l56 -2 -5 47 c-8 77 -17 92 -55 92 -19 0 -37 -3 -40 -7z m53 -103 c-13
-24 -33 -22 -38 3 -2 11 6 21 20 26 27 10 34 0 18 -29z"/>
<path d="M2400 2490 c-10 -6 -11 -10 -2 -10 8 0 12 -18 12 -54 0 -34 -5 -56
-12 -59 -7 -3 7 -6 32 -6 35 0 41 2 28 10 -22 12 -24 67 -4 95 14 18 15 18 21
2 10 -26 25 -22 25 7 0 27 -10 31 -41 15 -13 -7 -19 -7 -19 0 0 13 -20 13 -40
0z"/>
<path d="M2530 2490 c-10 -6 -11 -10 -2 -10 8 0 12 -18 12 -54 0 -34 -5 -56
-12 -59 -7 -3 5 -6 27 -6 30 -1 36 2 27 11 -7 7 -12 38 -12 70 0 59 -8 69 -40
48z"/>
<path d="M2637 2493 c-4 -3 -7 -16 -7 -27 0 -20 1 -20 19 3 21 27 51 23 51 -6
0 -11 -15 -24 -40 -35 -28 -12 -40 -23 -40 -37 0 -21 32 -46 44 -34 3 3 22 6
41 5 19 -1 37 3 40 8 3 6 1 10 -4 10 -6 0 -11 18 -11 41 0 58 -14 79 -54 79
-18 0 -36 -3 -39 -7z m50 -110 c-17 -17 -37 -10 -37 13 0 21 44 36 48 17 2 -9
-3 -22 -11 -30z"/>
<path d="M310 2133 c0 -4 12 -17 27 -29 l27 -21 -13 -149 c-16 -190 -19 -203
-47 -216 -13 -6 -24 -17 -24 -25 0 -10 18 -13 70 -13 54 0 70 3 70 14 0 8 -9
17 -19 21 -10 3 -21 15 -24 26 -7 24 14 259 22 259 3 0 39 -72 80 -160 51
-111 78 -160 88 -158 9 2 43 72 81 165 37 89 68 160 70 158 7 -7 31 -257 26
-270 -3 -8 -14 -17 -25 -20 -10 -4 -19 -13 -19 -21 0 -11 17 -14 80 -14 64 0
80 3 80 15 0 8 -9 19 -20 25 -22 12 -27 32 -43 205 -14 151 -12 176 14 182 10
3 19 12 19 20 0 11 -12 13 -50 11 l-51 -3 -71 -178 c-39 -98 -74 -175 -78
-170 -5 4 -43 86 -86 181 l-78 172 -53 0 c-29 0 -53 -3 -53 -7z"/>
<path d="M1091 2118 c-129 -339 -150 -386 -175 -407 -28 -24 -17 -31 44 -31
64 0 78 14 39 38 -21 13 -20 24 3 85 10 27 12 27 99 27 l88 0 21 -46 c25 -57
25 -61 0 -69 -11 -3 -20 -13 -20 -21 0 -11 17 -14 75 -14 59 0 75 3 75 15 0 7
-6 18 -14 22 -17 10 -37 49 -126 256 -72 167 -91 192 -109 145z m43 -157 c20
-45 36 -87 36 -92 0 -5 -31 -9 -70 -9 -38 0 -70 3 -70 8 0 10 64 182 66 179 2
-1 19 -40 38 -86z"/>
<path d="M1400 2126 c0 -9 7 -16 15 -16 27 0 35 -47 35 -198 0 -165 -4 -189
-31 -197 -10 -4 -19 -13 -19 -21 0 -11 17 -14 80 -14 58 0 80 4 80 13 0 7 -10
17 -22 22 -21 9 -23 18 -26 93 -3 81 -3 82 22 82 29 0 65 -43 120 -142 l38
-68 54 0 c62 0 74 19 25 40 -32 13 -150 182 -132 188 68 23 115 106 89 158
-28 58 -57 69 -199 72 -112 3 -129 2 -129 -12z m223 -27 c26 -12 47 -47 47
-79 0 -55 -56 -100 -125 -100 l-35 0 0 95 0 95 45 0 c24 0 55 -5 68 -11z"/>
<path d="M1965 1963 c-76 -200 -101 -253 -115 -253 -6 0 -10 -7 -10 -15 0 -11
13 -15 54 -15 59 0 79 13 46 30 -23 12 -25 39 -8 87 l12 33 91 0 90 0 18 -43
c22 -54 21 -59 -3 -75 -12 -7 -18 -17 -15 -22 7 -11 138 -14 148 -4 4 4 -4 19
-17 34 -12 15 -51 92 -86 171 -34 79 -73 168 -86 197 -13 28 -29 52 -36 52 -9
0 -41 -69 -83 -177z m107 -10 l36 -88 -70 -3 c-39 -2 -72 -1 -74 1 -6 5 59
177 67 177 3 0 22 -39 41 -87z"/>
<path d="M2360 2108 c0 -18 -3 -43 -6 -55 -5 -19 -2 -23 15 -23 14 0 23 8 27
25 10 40 41 55 111 55 35 0 63 -4 63 -8 0 -4 -54 -97 -120 -206 -66 -109 -118
-202 -114 -207 3 -5 76 -9 163 -9 177 0 171 -3 171 77 0 42 -21 47 -40 9 -21
-43 -53 -56 -139 -56 l-73 0 23 38 c109 175 219 366 219 378 0 12 -26 14 -150
14 l-150 0 0 -32z"/>
<path d="M2750 2127 c0 -7 9 -18 20 -25 19 -11 20 -23 20 -165 0 -125 3 -158
18 -187 22 -44 72 -70 137 -70 65 0 115 26 137 70 15 29 18 62 18 183 0 134 2
149 20 167 32 32 24 40 -40 40 -47 0 -60 -3 -60 -15 0 -8 7 -15 15 -15 26 0
35 -46 34 -173 0 -148 -11 -185 -60 -211 -32 -18 -41 -18 -78 -8 -67 20 -76
48 -76 227 0 146 1 150 23 160 12 5 22 15 22 22 0 9 -21 13 -75 13 -54 0 -75
-4 -75 -13z"/>
<path d="M3210 2127 c0 -7 10 -17 23 -22 21 -10 22 -14 25 -183 2 -174 -3
-212 -33 -212 -8 0 -15 -7 -15 -15 0 -13 23 -15 150 -15 117 0 152 3 156 13
11 30 9 100 -3 104 -7 3 -13 -3 -13 -12 0 -9 -11 -27 -25 -40 -20 -21 -34 -25
-79 -25 -44 0 -57 4 -66 19 -13 25 -13 311 0 345 5 14 16 26 25 26 8 0 15 7
15 15 0 12 -16 15 -80 15 -58 0 -80 -4 -80 -13z"/>
<path d="M1750 1399 c-234 -176 -247 -189 -200 -204 14 -5 35 4 70 30 l50 37
0 -231 0 -231 60 0 59 0 3 143 3 142 95 0 95 0 3 -142 3 -143 69 0 70 0 0 154
0 153 -50 5 c-67 7 -122 46 -155 111 -37 74 -30 134 21 204 l24 32 -26 20
c-15 12 -34 21 -43 21 -9 0 -77 -46 -151 -101z"/>
<path d="M2061 1469 c-102 -21 -158 -150 -108 -246 56 -106 224 -110 287 -7
46 74 27 177 -41 227 -33 24 -93 35 -138 26z m66 -59 c13 -15 26 -35 29 -44 9
-22 -25 -21 -42 2 -19 25 -40 2 -25 -27 7 -12 16 -21 21 -21 19 0 50 -40 50
-65 0 -14 -13 -38 -30 -55 -33 -34 -40 -36 -40 -15 0 8 -7 15 -15 15 -16 0
-35 30 -35 54 0 23 25 19 42 -6 8 -12 19 -18 26 -14 21 13 13 32 -28 65 -48
39 -51 68 -12 110 15 16 29 30 32 30 3 0 15 -13 27 -29z"/>
</g>
</svg>
