<?xml version="1.0" standalone="no"?>
<!DOCTYPE svg PUBLIC "-//W3C//DTD SVG 20010904//EN"
 "http://www.w3.org/TR/2001/REC-SVG-20010904/DTD/svg10.dtd">
<svg version="1.0" xmlns="http://www.w3.org/2000/svg"
 width="278.000000pt" height="272.000000pt" viewBox="0 0 278.000000 272.000000"
 preserveAspectRatio="xMidYMid meet">
<metadata>
Created by potrace 1.14, written by Peter Selinger 2001-2017
</metadata>
<g transform="translate(0.000000,272.000000) scale(0.100000,-0.100000)"
fill="#0090B0" stroke="none">
<path d="M1175 2713 c-273 -42 -549 -185 -747 -385 -344 -348 -474 -830 -354
-1308 84 -329 319 -640 624 -824 306 -185 711 -236 1069 -136 403 112 746 432
903 842 119 310 103 721 -40 1026 -181 386 -491 646 -905 759 -80 23 -113 25
-305 28 -118 2 -228 1 -245 -2z m430 -69 c515 -90 906 -456 1046 -979 30 -114
38 -393 15 -520 -70 -375 -293 -699 -611 -887 -338 -201 -741 -238 -1117 -103
-402 144 -726 519 -813 943 -90 434 44 881 357 1189 191 187 426 310 685 357
108 19 327 20 438 0z"/>
<path d="M1650 2195 c-69 -40 -126 -80 -128 -89 -3 -14 -40 -16 -365 -17
l-362 0 -203 -214 c-202 -213 -218 -236 -171 -248 18 -5 19 -16 19 -247 0
-189 3 -241 13 -238 8 3 13 37 15 111 l3 107 64 0 65 0 0 -56 c0 -34 4 -53 10
-49 6 3 10 28 10 56 l0 49 55 0 55 0 0 -104 c0 -80 3 -105 14 -109 8 -3 17 -3
20 0 3 4 6 114 6 245 l0 238 375 0 375 0 2 -242 c2 -182 6 -242 16 -246 9 -3
12 89 12 436 l0 441 28 19 c15 10 68 42 119 71 l92 52 116 -66 115 -67 0 -438
c0 -241 4 -441 8 -444 27 -16 32 17 34 242 l3 231 120 -53 120 -52 5 -182 c3
-100 8 -182 13 -182 4 0 12 0 17 0 6 0 10 64 10 171 0 162 1 170 19 164 11 -3
21 0 24 9 4 10 -38 34 -161 88 l-167 75 -5 231 c-3 127 -7 232 -10 235 -18 15
-255 147 -264 146 -6 0 -67 -34 -136 -74z m255 -28 c68 -38 111 -70 113 -81 3
-15 -10 -11 -75 25 -43 24 -95 52 -115 63 l-37 21 -43 -22 c-24 -12 -75 -40
-115 -63 -40 -23 -74 -36 -77 -31 -4 5 -1 15 6 21 19 17 211 128 223 129 6 0
59 -27 120 -62z m-387 -274 l2 -163 -505 0 -506 0 14 20 c8 11 78 86 156 165
l142 145 347 -2 347 -3 3 -162z m2 -213 c0 -7 -185 -10 -536 -10 -354 0 -533
3 -529 10 4 6 193 10 536 10 346 0 529 -3 529 -10z m-790 -180 l0 -130 -130 0
-130 0 0 130 0 130 130 0 130 0 0 -130z"/>
<path d="M1677 1953 c-11 -10 -8 -221 3 -228 6 -4 10 33 10 104 l0 111 101 0
100 0 -3 -105 c-2 -58 0 -105 5 -105 4 0 7 52 7 115 l0 115 -108 0 c-60 0
-112 -3 -115 -7z"/>
<path d="M880 1430 l0 -120 115 0 116 0 -3 118 -3 117 -112 3 -113 3 0 -121z
m218 -2 l-3 -103 -102 -3 -103 -3 0 106 0 105 105 0 106 0 -3 -102z"/>
<path d="M1237 1544 c-4 -4 -7 -58 -7 -121 l0 -114 113 3 112 3 0 115 0 115
-106 3 c-58 1 -108 -1 -112 -4z m211 -116 l-3 -103 -100 0 -100 0 -3 103 -3
102 106 0 106 0 -3 -102z"/>
<path d="M1674 1537 c-2 -7 -3 -60 -2 -118 l3 -104 113 -3 112 -3 0 121 0 120
-110 0 c-82 0 -112 -3 -116 -13z m216 -112 l0 -105 -100 0 -100 0 0 105 0 105
100 0 100 0 0 -105z"/>
<path d="M533 1225 c0 -44 2 -61 4 -37 2 23 2 59 0 80 -2 20 -4 1 -4 -43z"/>
<path d="M683 1225 c0 -44 2 -61 4 -37 2 23 2 59 0 80 -2 20 -4 1 -4 -43z"/>
<path d="M447 1063 c-4 -3 -7 -64 -7 -135 0 -121 1 -128 20 -128 19 0 20 7 20
135 0 106 -3 135 -13 135 -8 0 -17 -3 -20 -7z"/>
<path d="M550 935 c0 -113 2 -135 15 -135 12 0 15 18 15 103 l1 102 30 -35
c16 -19 50 -65 75 -102 68 -101 75 -95 72 65 -3 109 -6 132 -18 132 -12 0 -16
-18 -18 -94 l-3 -93 -49 68 c-54 77 -96 124 -110 124 -6 0 -10 -55 -10 -135z"/>
<path d="M837 1056 c-3 -8 -9 -69 -13 -135 -6 -107 -5 -121 9 -121 17 0 25 39
30 145 l2 60 39 -82 c25 -54 45 -83 55 -83 10 0 28 27 50 76 41 90 49 83 50
-38 1 -72 3 -78 21 -78 20 0 20 4 14 93 -9 132 -17 172 -33 172 -8 0 -34 -40
-59 -90 l-45 -90 -39 85 c-44 96 -68 121 -81 86z"/>
<path d="M1208 1055 c-75 -42 -78 -189 -6 -239 28 -20 100 -21 137 -1 73 37
80 169 12 229 -28 25 -107 31 -143 11z m119 -39 c24 -21 28 -31 28 -79 0 -69
-29 -107 -82 -107 -54 0 -83 36 -83 102 1 55 11 76 45 96 31 18 62 14 92 -12z"/>
<path d="M1526 1063 c-13 -13 -106 -240 -106 -259 0 -2 8 -4 19 -4 12 0 21 11
27 33 9 31 11 32 71 35 l61 3 12 -36 c8 -24 18 -35 31 -35 10 0 19 4 19 9 0
15 -90 234 -102 248 -12 15 -21 16 -32 6z m41 -105 l20 -53 -23 -3 c-13 -2
-35 -2 -48 0 l-23 3 20 53 c11 28 23 52 27 52 4 0 16 -24 27 -52z"/>
<path d="M1695 1060 c-13 -21 8 -30 65 -30 l60 0 -65 -96 c-89 -132 -88 -134
30 -134 78 0 95 3 95 15 0 12 -15 15 -76 15 l-76 0 23 38 c13 20 47 70 77 109
29 40 51 77 47 83 -8 13 -172 13 -180 0z"/>
<path d="M1920 970 c0 -144 16 -170 105 -170 36 0 48 5 69 31 25 30 27 36 24
133 -2 82 -6 101 -18 101 -12 0 -16 -19 -18 -100 -3 -109 -15 -135 -61 -135
-50 0 -56 11 -61 127 -4 92 -8 108 -22 111 -16 3 -18 -7 -18 -98z"/>
<path d="M2187 1063 c-4 -3 -7 -64 -7 -135 l0 -128 80 0 c64 0 80 3 80 15 0
12 -13 15 -60 15 l-60 0 0 120 c0 93 -3 120 -13 120 -8 0 -17 -3 -20 -7z"/>
</g>
</svg>
