<?xml version="1.0" standalone="no"?>
<!DOCTYPE svg PUBLIC "-//W3C//DTD SVG 20010904//EN"
 "http://www.w3.org/TR/2001/REC-SVG-20010904/DTD/svg10.dtd">
<svg version="1.0" xmlns="http://www.w3.org/2000/svg"
 width="212.000000pt" height="151.000000pt" viewBox="0 0 212.000000 151.000000"
 preserveAspectRatio="xMidYMid meet">
<metadata>
Created by potrace 1.14, written by Peter Selinger 2001-2017
</metadata>
<g transform="translate(0.000000,151.000000) scale(0.100000,-0.100000)"
fill="#0090B0" stroke="none">
<path d="M1310 1436 c-72 -41 -126 -79 -128 -89 -3 -16 -30 -17 -365 -17
l-362 0 -200 -211 c-110 -116 -201 -215 -203 -220 -2 -5 5 -12 15 -16 10 -3
21 -11 25 -17 4 -6 8 -118 8 -249 0 -186 3 -238 13 -235 8 3 13 37 15 111 l3
107 64 0 65 0 0 -50 c0 -27 5 -50 10 -50 6 0 10 23 10 50 l0 50 55 0 55 0 0
-99 c0 -75 4 -101 15 -111 12 -10 16 -10 20 1 3 8 6 120 7 249 l3 235 370 0
370 0 3 -240 c2 -222 8 -272 29 -251 5 4 10 206 13 449 l5 442 112 63 112 64
113 -64 113 -64 5 -445 c3 -244 7 -445 8 -446 1 -1 9 0 17 3 13 5 15 41 15
241 0 184 3 234 13 230 6 -2 63 -26 125 -53 l112 -49 0 -181 c0 -99 3 -184 7
-187 3 -4 12 -2 20 4 10 9 13 51 13 179 0 159 1 167 20 166 51 -2 11 24 -140
90 l-165 73 -5 232 -5 231 -128 74 c-71 41 -134 74 -140 73 -7 -1 -68 -33
-137 -73z m256 -27 c129 -73 117 -64 112 -83 -2 -12 -27 -2 -106 44 -57 33
-112 60 -122 60 -10 0 -65 -27 -122 -60 -79 -46 -104 -56 -106 -44 -2 9 -2 17
0 18 16 14 216 125 224 126 6 0 60 -28 120 -61z m-386 -274 l0 -165 -505 0
c-278 0 -505 3 -505 6 0 3 69 77 153 165 l152 158 353 1 352 0 0 -165z m-2
-212 c3 -10 -108 -13 -533 -13 -478 0 -536 2 -525 15 11 13 79 15 533 13 406
-2 521 -6 525 -15z m-788 -178 l0 -135 -130 0 -130 0 0 135 0 135 130 0 130 0
0 -135z"/>
<path d="M1337 1193 c-4 -3 -7 -55 -7 -115 l0 -108 115 0 115 0 0 115 0 115
-108 0 c-60 0 -112 -3 -115 -7z m213 -108 l0 -105 -100 0 -100 0 0 105 0 105
100 0 100 0 0 -105z"/>
<path d="M540 675 l0 -115 115 0 115 0 0 115 0 115 -115 0 -115 0 0 -115z
m218 -2 l3 -103 -106 0 -105 0 0 105 0 106 103 -3 102 -3 3 -102z"/>
<path d="M890 675 l0 -115 115 0 115 0 0 115 0 115 -115 0 -115 0 0 -115z
m218 -2 l3 -103 -106 0 -105 0 0 98 c0 54 3 102 7 106 4 4 50 5 103 4 l95 -3
3 -102z"/>
<path d="M1337 783 c-4 -3 -7 -55 -7 -115 l0 -108 115 0 115 0 0 115 0 115
-108 0 c-60 0 -112 -3 -115 -7z m213 -108 l0 -105 -100 0 -100 0 0 105 0 105
100 0 100 0 0 -105z"/>
<path d="M193 465 c0 -44 2 -61 4 -37 2 23 2 59 0 80 -2 20 -4 1 -4 -43z"/>
<path d="M343 465 c0 -44 2 -61 4 -37 2 23 2 59 0 80 -2 20 -4 1 -4 -43z"/>
<path d="M104 297 c-2 -7 -3 -67 -2 -132 3 -105 5 -120 21 -123 15 -3 17 8 17
132 0 115 -2 136 -15 136 -9 0 -18 -6 -21 -13z"/>
<path d="M210 175 c0 -113 2 -135 15 -135 12 0 15 18 15 100 0 55 3 100 6 100
9 0 24 -20 90 -117 31 -46 62 -83 70 -83 11 0 14 26 14 135 0 128 -1 135 -20
135 -19 0 -20 -7 -20 -97 l0 -96 -41 58 c-64 92 -101 135 -116 135 -10 0 -13
-29 -13 -135z"/>
<path d="M497 296 c-3 -8 -9 -69 -13 -135 -6 -107 -5 -121 9 -121 17 0 25 39
30 145 l3 60 38 -82 c25 -53 45 -83 55 -83 10 0 29 29 51 81 40 93 47 87 49
-43 1 -72 3 -78 22 -78 22 0 22 11 3 213 -8 82 -29 73 -82 -37 l-44 -89 -43
92 c-42 87 -66 110 -78 77z"/>
<path d="M862 294 c-33 -23 -52 -67 -52 -119 0 -90 53 -142 137 -132 24 2 53
13 65 23 25 23 48 74 48 108 0 45 -31 106 -61 121 -37 20 -109 19 -137 -1z
m129 -40 c19 -21 24 -36 24 -81 0 -48 -4 -58 -28 -79 -37 -31 -81 -31 -112 1
-21 20 -25 34 -25 80 0 46 4 60 25 80 33 34 83 34 116 -1z"/>
<path d="M1150 233 c-29 -69 -70 -180 -70 -190 0 -1 8 -3 19 -3 12 0 21 11 27
33 9 31 11 32 71 35 l61 3 13 -36 c8 -22 19 -35 31 -35 23 0 23 1 -10 90 -81
213 -92 221 -142 103z m77 -35 l20 -53 -23 -3 c-13 -2 -35 -2 -48 0 l-24 3 20
53 c11 28 23 52 27 52 5 0 17 -24 28 -52z"/>
<path d="M1355 300 c-13 -21 8 -30 65 -30 l59 0 -64 -95 c-36 -53 -65 -104
-65 -115 0 -19 7 -20 96 -20 86 0 95 2 92 18 -3 14 -16 18 -71 20 -37 2 -67 6
-67 11 0 9 66 105 112 163 16 21 27 42 23 48 -8 13 -172 13 -180 0z"/>
<path d="M1580 205 c0 -104 1 -107 29 -136 39 -38 97 -40 138 -5 27 23 28 28
31 135 4 107 3 111 -17 111 -20 0 -21 -5 -21 -100 0 -87 -3 -103 -20 -120 -25
-25 -62 -26 -83 -2 -12 13 -17 43 -19 117 -3 86 -5 100 -20 103 -16 3 -18 -7
-18 -103z"/>
<path d="M1840 175 l0 -135 80 0 c73 0 80 2 80 20 0 18 -7 20 -60 20 l-60 0 0
115 c0 108 -1 115 -20 115 -19 0 -20 -7 -20 -135z"/>
</g>
</svg>
